<svg id="logo" xmlns="http://www.w3.org/2000/svg" width="167.13mm" height="46.966mm" viewBox="0 0 592.19369 166.41627"><g fill="none" stroke="#FFFFFF" stroke-width="15" stroke-miterlimit="10">
  <defs>
    <clipPath id="outline">
      <path data-ignore="true" fill="none" stroke="#FFFFFF" stroke-miterlimit="10" d="M130.68 6.87c-27.68 0-51.38 6.2-71.1 18.63C40 37.8 29.2 52.78 27.18 70.47v1.42c0 6.07 4.8 9.1 14.37 9.1 9.6 0 18.77-2.63 27.55-7.9 8.9-5.4 14.65-11.88 17.22-19.44.4-1.08.13-1.62-.8-1.62-.82 0-1.7.88-2.64 2.63-2.57 4.73-7.57 9.52-15 14.38-7.42 4.86-14.44 7.3-21.06 7.3-6.62 0-9.92-2.64-9.92-7.9 0-16.2 12.28-30.32 36.86-42.34 20.26-9.85 40.1-14.78 59.55-14.78 19.46 0 33.5 3.52 42.14 10.54 5.4 4.32 8.1 9.45 8.1 15.4 0 2.96-.8 6.2-2.43 9.7-7.82 16.22-27.4 24.32-58.73 24.32-2.7 0-6.07-.13-10.12-.4 16.6-22.96 27.07-34.44 31.4-34.44 1.34 0 1.95.95 1.82 2.84-.8 1.08-1.22 1.9-1.22 2.43 0 1.1.4 1.5 1.22 1.22.8 0 1.48-.6 2.02-1.82.67-1.22 1-2.5 1-3.85 0-2.97-1.75-4.46-5.26-4.46-3.38 0-10 5.06-19.85 15.2-.28.26-6.36 7-18.24 20.24-3.24-2.43-6.08-3.64-8.5-3.64-.42 0-.9.06-1.43.2-4.18.94-6.28 2.97-6.28 6.08 0 2.3 1.42 3.44 4.26 3.44 1.1 0 2.5-.34 4.26-1l3.24 1.2c-1.2.95-2.7 2.57-4.46 4.86-31.46 42.13-56.17 63.2-74.13 63.2-9.58 0-14.37-3.58-14.37-10.73 0-4.06 1.55-8.5 4.66-13.37 3.1-5 6.33-8.85 9.7-11.55 3.38-2.7 5.07-4.4 5.07-5.06 0-.27-.27-.4-.8-.4-2.98 0-6.42 1.95-10.34 5.87-3.9 3.9-7.22 8.5-9.92 13.77-2.7 5.14-4.04 9.87-4.04 14.2 0 8.63 5.73 12.95 17.2 12.95 16.35 0 32.35-7.63 48.02-22.9 7.02-6.87 18.63-21.05 34.84-42.52-.14.4-.2.94-.2 1.62 0 4.32 2.36 14.38 7.1 30.18 4.85 15.66 9.78 26.47 14.77 32.4 5 5.95 10.46 8.92 16.4 8.92 5.94 0 11.4-3.7 16.4-11.14 3.64-5.06 5.5-9.24 5.65-12.55 1.87 1.25 4.17 2.27 6.9 3.04 1.22.4 2.57.6 4.06.6 7.16 0 15.87-3.72 26.14-11.14 4-2.9 7.78-5.98 11.34-9.2.9-.76 2.1-1.87 3.6-3.36l1.53-1.6c.8-.82 1.6-1.65 2.37-2.48l8.27-8.68c-7.02 15.4-10.53 24.3-10.53 26.73 0 1.62.6 3.24 1.83 4.86 1.35 1.63 2.9 2.44 4.66 2.44.8 0 4.3-4 10.52-11.95 6.35-7.97 13.17-15.87 20.46-23.7 7.43-7.97 16.4-15.4 26.94-22.3-7.3 15-11.68 24.05-13.17 27.16-4.72 9.6-7.76 18.1-9.1 25.52 0 3.64 1.6 5.47 4.85 5.47 1.62 0 2.77-.54 3.44-1.62 4.33-11.6 11.96-22.7 22.9-33.22 10.93-10.67 20.6-18.03 28.96-22.08-4.73 5.8-9.25 12.96-13.57 21.47-4.32 8.37-6.48 15-6.48 19.85 0 8.5 4.6 12.76 13.77 12.76 4.32 0 10.26-2.77 17.83-8.3 4.4-3.24 8.6-6.87 12.65-10.86-1.02 2.95-1.54 5.63-1.54 8.02 0 3.1.8 5.93 2.43 8.5 2 3.64 4.78 5.47 8.3 5.47h3.23c7.57 0 16.68-6.55 27.35-19.65 9.05-11.07 13.57-18.97 13.57-23.7 0-.67-.07-1.28-.2-1.82 10.53-4.32 15.86-7.63 16-9.93-5 2.57-8.7 3.85-11.14 3.85-2.42 0-3.7-.2-3.84-.6.68-2.98 1-5.4 1-7.3 0-7.3-3.43-10.94-10.32-10.94-7.3 0-16.88 7.36-28.76 22.08-4.5 5.6-8.15 10.72-10.93 15.37-.27.28-.5.52-.8.84-6.34 7.42-12.62 13.36-18.83 17.82-6.08 4.3-10.73 6.47-13.98 6.47-3.1 0-5.26-.6-6.48-1.82-1.2-1.2-1.68-3.04-1.4-5.47 1.07-7.15 6-16.27 14.77-27.34C329.6 80.34 334 74.6 334 74.32c0-1.35-.74-2.5-2.23-3.44-1.35-1.08-2.84-1.62-4.46-1.62-5.52 0-14.64 4.92-27.33 14.78 0 .14-7.5 6.48-22.48 19.04.53-1.75 3.36-7.3 8.5-16.6 5.26-9.06 7.9-14.12 7.9-15.2 0-1.2-.68-2.3-2.03-3.24-1.35-.94-2.84-1.42-4.46-1.42-5.26 0-16.2 7.7-32.8 23.1-11.08 10.26-19.38 18.43-24.92 24.5.8-3.1 4.8-10.73 11.95-22.9 7.16-12.27 10.74-18.9 10.74-19.84 0-2.56-1.35-3.85-4.05-3.85-2.7 0-4.8 1.02-6.28 3.04-8.3 11.77-14.34 20.08-18.32 25.26-.28.3-.58.66-.9 1.08-5.8 7.43-12.82 14.46-21.05 21.07-10.67 9.05-19.38 13.57-26.13 13.57-6.62 0-9.93-3.5-9.93-10.53 0-4.04 1.02-7.9 3.05-11.54.8.27 1.75.4 2.84.4 7.14 0 16.4-3.43 27.74-10.32 11.47-6.9 17.2-14.1 17.2-21.68 0-2.43-1-4.45-3.03-6.07-1.88-1.77-4.37-2.64-7.48-2.64-9.45 0-20.12 6.2-32 18.63-11.9 12.4-17.83 23.35-17.83 32.8 0 3.1.78 5.74 2.33 7.96-.17.5-.34 1.1-.5 1.77-3.8 11.48-8.5 17.2-14.2 17.2-4.7 0-9.84-3.97-15.38-11.94-4.05-6.22-7.02-12.36-8.9-18.44-6.1-20.93-10.07-34.37-11.96-40.3 5.8 1.07 12.07 1.6 18.83 1.6 14.3 0 27.95-2.35 40.9-7.08 12.97-4.86 21.55-12.22 25.74-22.08 1.48-3.64 2.22-7.02 2.22-10.12 0-7.3-3.25-13.64-9.73-19.04-10.8-8.92-29.1-13.37-54.9-13.37zm327.1 44.76c-1.35 0-5.67 3.45-12.96 10.33l-25.52 23.9c-10.67 10.4-18.23 18.37-22.7 23.9-.66.68-1 1.5-1 2.44s.34 1.4 1 1.4c.96 0 2.64-1.2 5.08-3.63 2.16 8.24 4.72 14.25 7.7 18.03 3.1 3.78 7.5 5.67 13.16 5.67 5.8 0 10.67-1.15 14.58-3.45l6.48-4.25c6.48-1.35 11.75-3.04 15.8-5.06 4.37-2.35 8.96-5.88 13.78-10.55-1.43 3.63-2.16 7.08-2.16 10.35 0 7.3 4.33 12.16 12.97 14.6 1.2.4 2.55.6 4.04.6 6.9 0 15.46-3.65 25.72-10.94 5.72-4.1 10.98-8.56 15.8-13.38-1.04 3-1.58 5.7-1.58 8.1 0 3.12.8 5.95 2.44 8.52 2.02 3.64 4.8 5.47 8.3 5.47h3.24c7.56 0 16.68-6.55 27.35-19.65 9.05-11.07 13.58-18.97 13.58-23.7 0-.67-.07-1.28-.2-1.82 10.53-4.32 15.86-7.63 16-9.93-5 2.57-8.7 3.85-11.14 3.85-2.43 0-3.72-.2-3.85-.6.66-2.98 1-5.4 1-7.3 0-7.3-3.44-10.94-10.33-10.94-7.3 0-16.88 7.36-28.76 22.08-4.6 5.7-8.28 10.9-11.07 15.63-5.1 5.98-11.75 12.25-19.96 18.8-10 7.83-18.36 11.75-25.1 11.75-3.12 0-5.55-.95-7.3-2.84-1.63-1.88-2.44-3.57-2.44-5.05 0-1.5.27-3.72.8-6.7.7-2.96 1.7-5.53 3.05-7.7l7.9-11.53c2.43-3.38 6.9-7.56 13.37-12.56 6.62-5 11.82-7.7 15.6-8.1.4 0 .6.13.6.4 0 .14-.94 1.76-2.83 4.86-1.76 2.98-2.63 5.2-2.63 6.7 0 2.15 1.74 3.23 5.25 3.23 3.5 0 6.15-1.55 7.9-4.66 1.76-3.25 2.64-6.3 2.64-9.12 0-2.98-1.03-5.27-3.05-6.9-1.9-1.75-4.4-2.62-7.5-2.62-9.45 0-20.12 6.2-32 18.63-3.13 3.27-5.84 6.43-8.15 9.5-.48.34-1.02.8-1.65 1.43-11.88 14.45-23.43 21.74-34.64 21.87 1.36-5.13 3.25-14.24 5.7-27.34 2.55-13.1 5.05-21.74 7.48-25.93.67-.8 1.28-1.62 1.82-2.43.68-.94 1.62-2.16 2.84-3.64 1.35-1.63 2.02-3.25 2.02-4.87 0-3.25-2.16-4.87-6.48-4.87zm-10.94 15l-.8 6.88c-.55 8.38-2.17 18.04-4.87 28.97-2.56 10.94-5.2 17.15-7.9 18.64-2.02 1.5-4.93 2.24-8.7 2.24-3.8 0-7.23-1.42-10.34-4.26-2.97-2.97-4.45-6.75-4.45-11.34 0-.67.06-1.42.2-2.23.27-2.82 4.6-8.63 12.96-17.4 8.5-8.78 16.48-15.94 23.9-21.48zm-240.62 8.5c3.5 0 5.27.8 5.27 2.43 0 .54-.15 1.15-.42 1.82-2.16 6.48-7.56 12.5-16.2 18.03-8.5 5.4-15.33 8.1-20.46 8.1-.94 0-1.82-.12-2.63-.4 4.7-7.7 11.33-15.05 19.84-22.07 6.34-5.27 11.2-7.9 14.58-7.9zm176.36 4.66c3.24 5 5.94 8.1 8.1 9.3 0 4.6-4.45 12.16-13.36 22.7-8.9 10.53-16.28 15.8-22.08 15.8-3.24 0-4.86-2.57-4.86-7.7 0-5.14 4.18-13.1 12.55-23.9 8.5-10.8 15.06-16.2 19.65-16.2zm187.13 0c3.25 5 5.95 8.1 8.1 9.3 0 4.6-4.44 12.16-13.36 22.7-8.9 10.53-16.27 15.8-22.07 15.8-3.24 0-4.86-2.57-4.86-7.7 0-5.14 4.2-13.1 12.56-23.9 8.5-10.8 15.06-16.2 19.65-16.2z" style="line-height:125%;-inkscape-font-specification:'Alex Brush'" font-size="202.558" font-family="Alex Brush" letter-spacing="0" word-spacing="0"/>
    </clipPath>
  </defs>
  <path clip-path="url(#outline)" d="M148.54 44.22c-1.5-8.97-9.96-8-14.43-3.4-18.97 22.22-33.52 41.2-52.06 62.27-18.05 18-32.4 38.32-55.95 41-33.43 3.55-14.4-31.3 0-42.27"/>
  <path clip-path="url(#outline)" d="M92.9 68.5c47.17 17.85 134.92-2.2 84.43-50.27-31.26-20.6-85.67-8.25-115 9.94-13.17 8.18-29.35 22.6-28.46 39.92.46 8.97 9.95 10.7 17.2 9.4 13.48-2.36 31.03-15.75 37.4-28"/>
  <path clip-path="url(#outline)" d="M106.08 81.84c5 19.53 13.6 45.06 26.75 61.2 13.1 16.26 24.1 2.73 28.25-13.7"/>
  <path clip-path="url(#outline)" d="M168.58 103.1c12.5 9 43.56-8.62 45.33-23.74-7.93-21.83-40.46 15.7-45.73 23.75-12.25 73.4 57.65-6.45 79.38-28.52L221.78 128c22.56-23.25 39.58-42.92 66.95-56.73 0 0-28.7 61.96-25 58.43 0 0 34-57.3 63.7-56.9 1.02 9.6-41 52.28-15.1 54.77 12.9.75 21.25-14.44 32.5-18.23"/>
  <path clip-path="url(#outline)" d="M394.2 66.5c-98.26 46.5-18.5 109.35.44.2"/>
  <path clip-path="url(#outline)" d="M383.46 80.4c8.36 5.32 6.33 9.64 29.16-3.4"/>
  <path clip-path="url(#outline)" d="M396.12 115.43c21-18.06 42.32-48.5 67.16-60.82-19.06 11.83-11.44 56.05-26.1 68-13.03 10.14-32.6 5.4-30.65-15.75"/>
  <path clip-path="url(#outline)" d="M444.93 122.15c11.04-.77 19.38-8.42 28.4-14.16"/>
  <path clip-path="url(#outline)" d="M518.67 94.1c21.77-48-45.95.9-42.16 28.96 6.2 30.08 43.2-9.75 54.6-12.46"/>
  <path clip-path="url(#outline)" d="M556.83 127.18c-4.2 3.24-13.8 4.66-19.15 1.02-4.85-3.17-5.1-12.6-3.4-17.6 4.14-11.93 25.25-43.35 42.74-42.08 9.66 19.57 1.8 45.77-20.2 58.66zm10.7-51.94c4.45 2.08 4.5 15.07 22.6 3.36"/>

</g></svg>
